# xmcd
#
# Track frame offsets:
#	150
#	18596
#	36859
#	55875
#	73708
#	90946
#	109996
#	124127
#	137852
#	159227
#
# Disc length: 2339 seconds
#
# Revision: 1
# Processed by: cddbd v1.5.2PL0 Copyright (c) Steve Scherf et al.
# Submitted via: audiograbber 1.83.01
#
DISCID=8409210a
DTITLE=Elena - Shit vergangener Tage
DYEAR=1900
DGENRE=
TTITLE0=In Deinen Armen
TTITLE1=Strasse nach Clayton
TTITLE2=Apfel
TTITLE3=Wut im Bauch
TTITLE4=Ooh! (Eines Tages)
TTITLE5=Mehr Brain als Fame
TTITLE6=Meine Helden
TTITLE7=Der Kreisel
TTITLE8=Shit vergangener Tage
TTITLE9=Schwsester von
EXTD=
EXTT0=
EXTT1=
EXTT2=
EXTT3=
EXTT4=
EXTT5=
EXTT6=
EXTT7=
EXTT8=
EXTT9=
PLAYORDER=
